<svg width="27" height="27" viewBox="0 0 27 27" fill="none" xmlns="http://www.w3.org/2000/svg">
<path d="M13.5 16.875C15.364 16.875 16.875 15.364 16.875 13.5C16.875 11.636 15.364 10.125 13.5 10.125C11.636 10.125 10.125 11.636 10.125 13.5C10.125 15.364 11.636 16.875 13.5 16.875Z" fill="#8DBE00"/>
<path d="M26.1058 13.2131C25.1134 10.6461 23.3906 8.42621 21.1502 6.8277C18.9099 5.22919 16.2503 4.32217 13.5001 4.21875C10.7499 4.32217 8.09033 5.22919 5.85002 6.8277C3.60971 8.42621 1.88689 10.6461 0.894504 13.2131C0.827483 13.3985 0.827483 13.6015 0.894504 13.7869C1.88689 16.3539 3.60971 18.5738 5.85002 20.1723C8.09033 21.7708 10.7499 22.6778 13.5001 22.7812C16.2503 22.6778 18.9099 21.7708 21.1502 20.1723C23.3906 18.5738 25.1134 16.3539 26.1058 13.7869C26.1728 13.6015 26.1728 13.3985 26.1058 13.2131ZM13.5001 18.9844C12.4154 18.9844 11.3551 18.6627 10.4532 18.0601C9.55127 17.4575 8.84833 16.6009 8.43323 15.5988C8.01813 14.5966 7.90952 13.4939 8.12114 12.4301C8.33275 11.3662 8.85509 10.389 9.62209 9.62196C10.3891 8.85496 11.3663 8.33262 12.4302 8.12101C13.494 7.90939 14.5968 8.018 15.5989 8.4331C16.601 8.8482 17.4576 9.55114 18.0602 10.453C18.6629 11.3549 18.9845 12.4153 18.9845 13.5C18.9823 14.9539 18.4037 16.3475 17.3757 17.3756C16.3477 18.4036 14.954 18.9821 13.5001 18.9844Z" fill="#8DBE00"/>
</svg>
