<svg width="26" height="26" viewBox="0 0 26 26" fill="none" xmlns="http://www.w3.org/2000/svg">
<path d="M23.2917 4.33334H20.9445V5.77778H23.1112V21.6667H2.88897V5.77778H5.05563V4.33334H2.70841C2.53958 4.33616 2.37296 4.37221 2.21807 4.43944C2.06318 4.50666 1.92304 4.60374 1.80568 4.72513C1.68831 4.84653 1.59601 4.98985 1.53404 5.14692C1.47207 5.30399 1.44165 5.47173 1.44452 5.64056V21.8039C1.44165 21.9727 1.47207 22.1405 1.53404 22.2975C1.59601 22.4546 1.68831 22.5979 1.80568 22.7193C1.92304 22.8407 2.06318 22.9378 2.21807 23.005C2.37296 23.0722 2.53958 23.1083 2.70841 23.1111H23.2917C23.4606 23.1083 23.6272 23.0722 23.7821 23.005C23.937 22.9378 24.0771 22.8407 24.1945 22.7193C24.3118 22.5979 24.4041 22.4546 24.4661 22.2975C24.5281 22.1405 24.5585 21.9727 24.5556 21.8039V5.64056C24.5585 5.47173 24.5281 5.30399 24.4661 5.14692C24.4041 4.98985 24.3118 4.84653 24.1945 4.72513C24.0771 4.60374 23.937 4.50666 23.7821 4.43944C23.6272 4.37221 23.4606 4.33616 23.2917 4.33334Z" fill="white"/>
<path d="M5.77783 10.1111H7.22228V11.5556H5.77783V10.1111Z" fill="white"/>
<path d="M10.1113 10.1111H11.5558V11.5556H10.1113V10.1111Z" fill="white"/>
<path d="M14.4443 10.1111H15.8888V11.5556H14.4443V10.1111Z" fill="white"/>
<path d="M18.7778 10.1111H20.2223V11.5556H18.7778V10.1111Z" fill="white"/>
<path d="M5.77783 13.7222H7.22228V15.1667H5.77783V13.7222Z" fill="white"/>
<path d="M10.1113 13.7222H11.5558V15.1667H10.1113V13.7222Z" fill="white"/>
<path d="M14.4443 13.7222H15.8888V15.1667H14.4443V13.7222Z" fill="white"/>
<path d="M18.7778 13.7222H20.2223V15.1667H18.7778V13.7222Z" fill="white"/>
<path d="M5.77783 17.3333H7.22228V18.7778H5.77783V17.3333Z" fill="white"/>
<path d="M10.1113 17.3333H11.5558V18.7778H10.1113V17.3333Z" fill="white"/>
<path d="M14.4443 17.3333H15.8888V18.7778H14.4443V17.3333Z" fill="white"/>
<path d="M18.7778 17.3333H20.2223V18.7778H18.7778V17.3333Z" fill="white"/>
<path d="M7.22222 7.22222C7.41377 7.22222 7.59747 7.14613 7.73291 7.01069C7.86835 6.87524 7.94444 6.69154 7.94444 6.5V2.16666C7.94444 1.97512 7.86835 1.79142 7.73291 1.65598C7.59747 1.52053 7.41377 1.44444 7.22222 1.44444C7.03068 1.44444 6.84698 1.52053 6.71153 1.65598C6.57609 1.79142 6.5 1.97512 6.5 2.16666V6.5C6.5 6.69154 6.57609 6.87524 6.71153 7.01069C6.84698 7.14613 7.03068 7.22222 7.22222 7.22222Z" fill="white"/>
<path d="M18.7779 7.22222C18.9694 7.22222 19.1531 7.14613 19.2886 7.01069C19.424 6.87524 19.5001 6.69154 19.5001 6.5V2.16666C19.5001 1.97512 19.424 1.79142 19.2886 1.65598C19.1531 1.52053 18.9694 1.44444 18.7779 1.44444C18.5863 1.44444 18.4026 1.52053 18.2672 1.65598C18.1318 1.79142 18.0557 1.97512 18.0557 2.16666V6.5C18.0557 6.69154 18.1318 6.87524 18.2672 7.01069C18.4026 7.14613 18.5863 7.22222 18.7779 7.22222Z" fill="white"/>
<path d="M9.38867 4.33334H16.6109V5.77778H9.38867V4.33334Z" fill="white"/>
</svg>
