<svg width="25" height="25" viewBox="0 0 25 25" fill="none" xmlns="http://www.w3.org/2000/svg">
<path d="M12.4369 3.20619L17.7077 8.47703L7.3556 18.8312C7.06722 19.1197 6.70852 19.328 6.31498 19.4354L0.985813 20.8885C0.85299 20.9245 0.713005 20.9248 0.580024 20.8894C0.447043 20.8539 0.325785 20.784 0.228523 20.6866C0.13126 20.5892 0.0614449 20.4679 0.0261415 20.3349C-0.00916198 20.2019 -0.00870037 20.0619 0.0274796 19.9291L1.4806 14.5999C1.588 14.2064 1.79625 13.8477 2.08477 13.5593L12.4348 3.20619H12.4369ZM19.8223 1.09161C20.5212 1.79057 20.9139 2.73855 20.9139 3.72702C20.9139 4.71549 20.5212 5.66348 19.8223 6.36244L18.8119 7.37286L13.541 2.10202L14.5514 1.09161C15.2504 0.392662 16.1984 0 17.1869 0C18.1753 0 19.1233 0.392662 19.8223 1.09161Z" fill="#F53939"/>
</svg>
