<svg width="28" height="28" viewBox="0 0 28 28" fill="none" xmlns="http://www.w3.org/2000/svg">
<path d="M22.1667 11.6667H5.83333C4.54467 11.6667 3.5 12.7113 3.5 14V23.3333C3.5 24.622 4.54467 25.6667 5.83333 25.6667H22.1667C23.4553 25.6667 24.5 24.622 24.5 23.3333V14C24.5 12.7113 23.4553 11.6667 22.1667 11.6667Z" stroke="#111111" stroke-width="2" stroke-linecap="round" stroke-linejoin="round"/>
<path d="M7 7C7 6.07174 7.36875 5.1815 8.02513 4.52513C8.6815 3.86875 9.57174 3.5 10.5 3.5H17.5C18.4283 3.5 19.3185 3.86875 19.9749 4.52513C20.6313 5.1815 21 6.07174 21 7V11.6667H7V7Z" stroke="#111111" stroke-width="2" stroke-linecap="round" stroke-linejoin="round"/>
</svg>
